<?xml version="1.0" encoding="utf-8"?>
<!-- Generator: Adobe Illustrator 26.0.3, SVG Export Plug-In . SVG Version: 6.00 Build 0)  -->
<svg version="1.1" id="Laag_1" xmlns="http://www.w3.org/2000/svg" xmlns:xlink="http://www.w3.org/1999/xlink" x="0px" y="0px"
	 viewBox="0 0 1091.4 391.7" style="enable-background:new 0 0 1091.4 391.7;" xml:space="preserve">
<style type="text/css">
	.st0{fill:#39297C;}
	.st1{fill:#D61E81;}
	.st2{opacity:0.9;fill:#24126E;enable-background:new    ;}
</style>
<g id="Group_65" transform="translate(50.694 24.506)">
	<path id="Path_17" class="st0" d="M489.4,302.1c-1.6,0-3.2,0.4-4.6,1.3c-8.4,5.4-18.2,8.3-28.1,8.2c-28.7-0.3-51.9-23.5-52.4-52.2
		c-0.2-28.8,22.9-52.3,51.8-52.6c8.9-0.1,17.7,2.2,25.6,6.5l0.2,0.1c1.1,0.5,2.4,0.9,3.6,0.9c4.6-0.1,8.3-3.8,8.2-8.4
		c0-3-1.6-5.9-4.2-7.4c-10.3-5.4-21.8-8.1-33.4-8.1c-37.7,0.7-68,31.3-68.3,69c0.1,38,30.9,68.7,68.9,68.7c13.1,0,26-3.7,37.1-10.6
		c3.9-2.5,5-7.6,2.6-11.5C494.9,303.6,492.3,302.2,489.4,302.1L489.4,302.1z"/>
	<path id="Path_18" class="st0" d="M559.9,224.2c-28.6,0.1-51.8,23.4-51.7,52c0.1,28.6,23.4,51.8,52,51.7
		c28.6-0.1,51.8-23.4,51.7-52c0,0,0,0,0,0C611.9,247.3,588.6,224.1,559.9,224.2C560,224.2,559.9,224.2,559.9,224.2z M559.9,311.5
		c-19.5-0.2-35.2-16.2-35-35.7c0.2-19.5,16.2-35.2,35.7-35c19.3,0.2,34.9,15.9,35,35.2C595.6,295.6,579.6,311.5,559.9,311.5
		C560,311.4,559.9,311.4,559.9,311.5L559.9,311.5z"/>
	<path id="Path_19" class="st0" d="M648.2,311.3c-0.1,0-0.1-0.2-0.1-0.5V202.5c0-9.2-5.1-15.4-12.7-15.4c-4.6-0.2-8.5,3.5-8.6,8.1
		c0,0.1,0,0.1,0,0.2c0,3.2,1.8,6.1,4.8,7.4c0.1,0.1,0.1,0.3,0.1,0.5v108.4c0,9.2,5.1,15.4,12.7,15.4c4.6,0.2,8.5-3.5,8.6-8.1
		c0-0.1,0-0.1,0-0.2C653,315.5,651.1,312.6,648.2,311.3z"/>
	<path id="Path_20" class="st0" d="M693.2,311.3c-0.1-0.1-0.1-0.3-0.1-0.5V202.5c0-9.2-5.1-15.4-12.7-15.4c-4.6-0.2-8.5,3.5-8.6,8.1
		c0,0.1,0,0.1,0,0.2c0,3.2,1.8,6.1,4.7,7.4c0,0,0.1,0.2,0.1,0.5v108.4c0,9.2,5.1,15.4,12.7,15.4c4.6,0.1,8.5-3.5,8.6-8.1
		c0-0.1,0-0.1,0-0.2C698,315.6,696.1,312.6,693.2,311.3z"/>
	<path id="Path_21" class="st0" d="M760.9,224.2c-29.6,0-47.9,26.8-47.9,51.6c-1.4,27.3,19.7,50.6,47,52c0.3,0,0.6,0,0.9,0
		c14.6,0.9,28.8-4.4,39.2-14.7c3.1-3.2,3.1-8.3,0-11.4c-1.6-1.6-3.7-2.4-5.9-2.4c-2.3,0-4.6,0.9-6.3,2.6c-7.4,6.7-17.1,10.1-27,9.4
		c-15.3-0.8-28.1-12-30.8-27.1h70.4c4.7,0,8.5-3.8,8.6-8.4C810,248.3,788.5,225.2,760.9,224.2z M730,267.8
		c2.7-15.1,15.5-26.4,30.9-27.1c15.4,0.7,28.3,12,31.2,27.1H730z"/>
	<path id="Path_22" class="st0" d="M915.4,216.7c-7.6,0-12.7,6.2-12.7,15.4v6.8c-7.9-8.7-19.1-13.7-30.9-13.7
		c-26.4-0.1-47.8,21.2-47.9,47.6c0,0.3,0,0.7,0,1c-0.3,25,19.7,45.4,44.6,45.7c1,0,2,0,3.1-0.1c11.5,0.5,22.7-3.7,31.1-11.5v10.4
		c1.7,15.4-9.5,29.2-24.8,30.8c-1.9,0.2-3.9,0.2-5.8,0c-9.9-0.6-19.4-3.7-27.9-8.9c-1.3-0.7-2.8-1.1-4.3-1.1
		c-4.4-0.1-8.1,3.4-8.2,7.9c0,0.1,0,0.2,0,0.4c0,2.8,1.5,5.3,3.9,6.7c10.9,7.1,23.7,10.9,36.7,10.9c14.1,0,47-4.6,47-46.8v-85.6
		c0-0.3,0.1-0.4-0.1-0.4c3-1.3,4.9-4.2,4.9-7.5c-0.1-4.6-3.8-8.3-8.4-8.2C915.6,216.7,915.5,216.7,915.4,216.7z M872.4,303.6
		c-16.1,1.1-30.1-11.1-31.2-27.2c-0.1-0.9-0.1-1.8-0.1-2.7c-0.4-17.5,13.4-32,30.9-32.4c0.2,0,0.5,0,0.7,0c17.1,0,30.9,13.9,30.9,31
		c0,0.4,0,0.8,0,1.2c0.6,16-11.9,29.6-27.9,30.2C874.6,303.7,873.5,303.6,872.4,303.6L872.4,303.6z"/>
	<path id="Path_23" class="st0" d="M1035,275.9c0.9-27.6-20.7-50.7-48.3-51.6c-29.6,0-47.9,26.8-47.9,51.6
		c-1.4,27.3,19.7,50.6,47,52c0.3,0,0.6,0,0.9,0c14.6,0.9,28.8-4.5,39.2-14.7c3.1-3.2,3.1-8.3,0-11.4c-1.6-1.5-3.7-2.4-5.9-2.3
		c-2.3,0-4.6,0.9-6.3,2.6c-7.4,6.7-17.1,10.1-27,9.4c-15.3-0.8-28.1-12-30.8-27.1h70.4C1031,284.3,1034.8,280.5,1035,275.9z
		 M955.8,267.8c2.7-15.1,15.5-26.4,30.9-27.1c15.4,0.7,28.3,12,31.2,27.1H955.8z"/>
</g>
<path id="Path_24" class="st1" d="M479.1,96.4l13.8-24.2L454.4,9.7c-2.1-4.3-6.3-7.3-11.1-7.6h-1c-5.1,0.3-9.6,3.3-11.8,7.9
	l-38.2,62.1l13.9,24.5l24.8-40.2l0.2,112.9c-8.9,6.5-11,19-4.5,27.9c6.5,8.9,19,11,27.9,4.5c8.9-6.5,11-19,4.5-27.9
	c-1.4-1.9-3-3.5-5-4.8l-0.1-112.6L479.1,96.4z"/>
<g id="Group_66" transform="translate(0 1.197)">
	<path id="Path_25" class="st2" d="M62.3,81.7c-16.4-6.1-34.9-13-34.9-28.2c0-11.2,13.6-19.9,31-19.9c10.1-0.3,20.1,2.9,28.2,9.1
		c1.9,1.5,4.2,2.3,6.5,2.2c6.2-0.1,11.2-5,11.5-11.1c-0.1-3.3-1.6-6.4-4.1-8.6c-11.8-9.8-26.8-14.8-42.1-14C32.2,11.2,5,27,5,53.6
		c0,31.4,24.8,40.2,48.7,48.8l2.4,0.8c12.9,4.3,32.5,10.8,32.5,26c0,11.4-14.7,19.9-34.2,19.9c-10.6-0.1-20.9-3.2-29.7-9.1
		c-2.4-1.7-5.2-2.6-8.1-2.7c-5.7,0-10.3,4.5-10.3,10.2c0,0.1,0,0.2,0,0.4c-0.1,3.2,1.1,6.3,3.4,8.6c12.6,10.6,28.8,16,45.2,15.1
		c19.5,0,56.4-9,56.4-43C111.3,98.5,82.9,88.8,62.3,81.7z"/>
	<path id="Path_26" class="st2" d="M251.4,11.2c-9.1-0.4-16.8,6.8-17.2,15.9c0,0.5,0,1,0,1.5v87.1c0,18.2-19.3,32.3-35.9,32.3h-6.4
		c-16.7,0-36.1-14.2-36.1-32.5V28.7c0.5-9.1-6.5-16.9-15.7-17.4c-0.5,0-1,0-1.5,0c-6.3-0.2-11.5,4.7-11.7,10.9c0,0.3,0,0.5,0,0.8
		c-0.1,3.4,1.3,6.7,3.9,9c1.4,0.7,2.3,2.2,2,3.8v80c0,28.9,28.2,55.3,59.1,55.3h6.4c31.3,0.1,57.2-24.4,58.9-55.7V35.7
		c-0.2-1.5,0.6-3.1,2-3.8c2.6-2.2,4.1-5.5,4-9c0.2-6.3-4.6-11.5-10.9-11.8C252,11.2,251.7,11.2,251.4,11.2z"/>
	<path id="Path_27" class="st2" d="M367,112.3L310,20.9c-3.3-5.7-9.2-9.4-15.8-9.6c-6.4-0.1-11.7,5.1-11.7,11.5
		c0,3.9,1.9,7.5,5.1,9.7c1,0.7,1.6,1.9,1.5,3.1v110.8c0.2,1.4-0.5,2.8-1.7,3.6l-0.3,0.2c-2.7,2.2-4.2,5.5-3.9,9
		c-0.3,6.3,4.6,11.7,10.9,12c0.3,0,0.5,0,0.8,0c9.2,0.3,16.9-6.9,17.2-16.1c0-0.5,0-1,0-1.5V81.5l0.1-9.5l1.9,3.2l43,66.7
		c2,3.7,5.9,6,10.1,6c4.4,0,8.4-2.3,10.8-6l20.5-33.4l-14.2-24.3L367,112.3z"/>
	<path id="Path_28" class="st2" d="M597.2,32.2c3.2-2.2,5.1-5.8,5.1-9.7c-0.1-6.4-5.3-11.6-11.7-11.5c-6.6,0.3-12.6,3.9-15.8,9.6
		l-56.4,91.4l-17.2-27.9l-14.5,23.7l20.8,34c2.1,3.7,5.9,5.9,10.1,6c4.2,0,8.1-2.3,10.1-6l43.1-66.8l1.9-3.2l0.1,81.2
		c-0.5,9.2,6.5,17.1,15.7,17.6c0.5,0,1,0,1.5,0c6.3,0.2,11.6-4.8,11.7-11.2c0-0.3,0-0.5,0-0.8c0.3-3.5-1.2-6.8-3.9-9l-0.3-0.2
		c-1.2-0.7-1.9-2.1-1.7-3.5V35.3C595.5,34.1,596.1,32.9,597.2,32.2z"/>
	<path id="Path_29" class="st2" d="M749.7,147.9c-1.5,0-2.9-1.1-3.3-2.6l-47-125.7c-1.8-5.1-6.7-8.4-12.1-8.3
		c-5.4-0.1-10.2,3.3-12.1,8.3l-42.7,114.8l-4.2,10.9c-0.4,1.5-1.7,2.6-3.2,2.6c-4.8,1.3-8,5.8-7.7,10.8c-0.2,3.1,0.9,6.1,3.1,8.3
		c3,2.8,7,4.3,11.1,4.1c6.9-0.2,13-4.6,15.2-11.2l11.3-29.3h58.6l11.3,29.3c2.3,6.7,8.6,11.2,15.7,11.2c6.7,0.8,12.8-3.9,13.6-10.6
		c0.1-0.4,0.1-0.9,0.1-1.3C757.3,154,754.4,148.4,749.7,147.9z M711,110.7h-47.3l19.1-53.1l4.4-15.4l4.5,15.4L711,110.7z"/>
</g>
</svg>
