<svg id="Layer_1" data-name="Layer 1" xmlns="http://www.w3.org/2000/svg" viewBox="0 0 229.04 62.34"><path d="M19,95.1a15.32,15.32,0,0,1-5.76-5.89,17.91,17.91,0,0,1-2.2-9,18,18,0,0,1,2.2-9A15.23,15.23,0,0,1,19,65.24a14.9,14.9,0,0,1,7.51-2,14.68,14.68,0,0,1,10.93,4.86V52.42a2.77,2.77,0,0,1,.87-2.11,2.85,2.85,0,0,1,2.08-.84,2.71,2.71,0,0,1,2,.87,2.9,2.9,0,0,1,.83,2.08V93.91a2.83,2.83,0,0,1-2.87,2.88A2.88,2.88,0,0,1,38.31,96a2.72,2.72,0,0,1-.87-2V92.25a14.68,14.68,0,0,1-10.93,4.86A15,15,0,0,1,19,95.1Zm13.87-4.73a15.84,15.84,0,0,0,4.57-3.49V73.45A15.63,15.63,0,0,0,32.87,70a12,12,0,0,0-5.53-1.31,10.07,10.07,0,0,0-7.61,3c-1.92,2-2.88,4.84-2.88,8.51s1,6.5,2.88,8.5a10.08,10.08,0,0,0,7.61,3A12.11,12.11,0,0,0,32.87,90.37Z" transform="translate(-11.04 -49.47)" style="fill:#fff"/><path d="M50,56.25A3.13,3.13,0,0,1,49,54v-.26a3.28,3.28,0,0,1,3.26-3.26h.38a3.28,3.28,0,0,1,3.26,3.26V54a3.28,3.28,0,0,1-3.26,3.26h-.38A3.13,3.13,0,0,1,50,56.25ZM50.36,96a2.8,2.8,0,0,1-.83-2V66.48a2.92,2.92,0,0,1,.83-2.08,2.75,2.75,0,0,1,2-.86,2.84,2.84,0,0,1,2.94,2.94V93.91a2.72,2.72,0,0,1-.87,2,2.89,2.89,0,0,1-2.07.83A2.8,2.8,0,0,1,50.36,96Z" transform="translate(-11.04 -49.47)" style="fill:#fff"/><path d="M69.35,110.86a24.36,24.36,0,0,1-6.2-2.37A2.42,2.42,0,0,1,62,106.25a2.61,2.61,0,0,1,.73-1.82,2.39,2.39,0,0,1,1.82-.8,3.19,3.19,0,0,1,1.16.26,23.21,23.21,0,0,0,10.55,2.43Q86,106.32,86,95.9V91.61A14.44,14.44,0,0,1,75.1,96.47,15.45,15.45,0,0,1,61.93,89a17.12,17.12,0,0,1-2.3-9.11,17.15,17.15,0,0,1,2.3-9.12A15.45,15.45,0,0,1,75.1,63.22,14.44,14.44,0,0,1,86,68.08v-1.6a2.92,2.92,0,0,1,.83-2.08,2.75,2.75,0,0,1,2-.86,3,3,0,0,1,2.94,2.94V95.07q0,8.06-3.9,12.4t-11.13,4.35A30.22,30.22,0,0,1,69.35,110.86Zm12.28-21A19.53,19.53,0,0,0,86,86.43V73.26a19.2,19.2,0,0,0-4.41-3.45,11.86,11.86,0,0,0-13.14,1.63q-3,2.91-3,8.41c0,3.66,1,6.47,3,8.4a11.84,11.84,0,0,0,13.14,1.64Z" transform="translate(-11.04 -49.47)" style="fill:#fff"/><path d="M98.57,56.25a3.13,3.13,0,0,1-1-2.3v-.26a3.28,3.28,0,0,1,3.26-3.26h.39a3.28,3.28,0,0,1,3.26,3.26V54a3.28,3.28,0,0,1-3.26,3.26h-.39A3.14,3.14,0,0,1,98.57,56.25ZM99,96a2.8,2.8,0,0,1-.83-2V66.48A2.92,2.92,0,0,1,99,64.4a2.76,2.76,0,0,1,2-.86,2.84,2.84,0,0,1,2.94,2.94V93.91a2.75,2.75,0,0,1-.86,2,2.92,2.92,0,0,1-2.08.83A2.81,2.81,0,0,1,99,96Z" transform="translate(-11.04 -49.47)" style="fill:#fff"/><path d="M116.19,95.1a15.32,15.32,0,0,1-5.76-5.89,17.91,17.91,0,0,1-2.2-9,18,18,0,0,1,2.2-9,15.23,15.23,0,0,1,5.76-5.88,14.9,14.9,0,0,1,7.51-2,14.68,14.68,0,0,1,10.93,4.86V52.42a2.77,2.77,0,0,1,.87-2.11,2.85,2.85,0,0,1,2.07-.84,2.72,2.72,0,0,1,2.05.87,2.9,2.9,0,0,1,.83,2.08V93.91a2.84,2.84,0,0,1-2.88,2.88A2.88,2.88,0,0,1,135.5,96a2.72,2.72,0,0,1-.87-2V92.25a14.68,14.68,0,0,1-10.93,4.86A15,15,0,0,1,116.19,95.1Zm13.87-4.73a15.84,15.84,0,0,0,4.57-3.49V73.45A15.63,15.63,0,0,0,130.06,70a12,12,0,0,0-5.53-1.31,10.07,10.07,0,0,0-7.61,3c-1.92,2-2.88,4.84-2.88,8.51s1,6.5,2.88,8.5a10.08,10.08,0,0,0,7.61,3A12.14,12.14,0,0,0,130.06,90.37Z" transform="translate(-11.04 -49.47)" style="fill:#fff"/><path d="M149.82,96A9.13,9.13,0,0,1,146,92.6a9.29,9.29,0,0,1-1.4-5.08A9,9,0,0,1,148.35,80q3.74-2.81,11-2.81h7.74v-.51c0-2.81-.69-4.84-2.08-6.07s-3.55-1.86-6.49-1.86a22.14,22.14,0,0,0-4.31.38A35.21,35.21,0,0,0,150,70.26a3.82,3.82,0,0,1-.83.12,2.28,2.28,0,0,1-1.67-.7,2.34,2.34,0,0,1-.7-1.73,2.46,2.46,0,0,1,1.66-2.43,28.23,28.23,0,0,1,11.07-2.3A14.5,14.5,0,0,1,167,65a11.3,11.3,0,0,1,4.47,4.64,13.44,13.44,0,0,1,1.44,6.17V93.91a2.75,2.75,0,0,1-.86,2,2.92,2.92,0,0,1-2.08.83,2.84,2.84,0,0,1-2.88-2.88V92.25a16.05,16.05,0,0,1-12,4.86A11.83,11.83,0,0,1,149.82,96Zm12.82-5.34a14.82,14.82,0,0,0,4.41-3.42V81.83h-7q-9.66,0-9.65,5A4.75,4.75,0,0,0,152,90.59c1,.94,2.78,1.41,5.21,1.41A11.54,11.54,0,0,0,162.64,90.62Z" transform="translate(-11.04 -49.47)" style="fill:#fff"/><path d="M181.92,96a9.06,9.06,0,0,1-5.21-8.44A9,9,0,0,1,180.45,80q3.74-2.81,11-2.81h7.74v-.51c0-2.81-.69-4.84-2.08-6.07s-3.55-1.86-6.49-1.86a22.14,22.14,0,0,0-4.31.38,35.21,35.21,0,0,0-4.19,1.16,3.82,3.82,0,0,1-.83.12,2.28,2.28,0,0,1-1.67-.7,2.34,2.34,0,0,1-.7-1.73,2.46,2.46,0,0,1,1.66-2.43,28.22,28.22,0,0,1,11.06-2.3A14.44,14.44,0,0,1,199.05,65a11.27,11.27,0,0,1,4.48,4.64A13.44,13.44,0,0,1,205,75.82V93.91a2.72,2.72,0,0,1-.87,2,2.88,2.88,0,0,1-2.07.83,2.84,2.84,0,0,1-2.88-2.88V92.25a16.07,16.07,0,0,1-12,4.86A11.83,11.83,0,0,1,181.92,96Zm12.82-5.34a14.94,14.94,0,0,0,4.41-3.42V81.83h-7q-9.66,0-9.66,5a4.76,4.76,0,0,0,1.57,3.71Q185.65,92,189.3,92A11.54,11.54,0,0,0,194.74,90.62Z" transform="translate(-11.04 -49.47)" style="fill:#fff"/><path d="M211.75,96a2.76,2.76,0,0,1-.83-2V66.48a2.88,2.88,0,0,1,.83-2.08,2.73,2.73,0,0,1,2-.86,2.86,2.86,0,0,1,2.08.86,2.82,2.82,0,0,1,.86,2.08V69.1A21.29,21.29,0,0,1,222,64.82a13.28,13.28,0,0,1,6.65-1.6,11.1,11.1,0,0,1,6.1,1.66,10.88,10.88,0,0,1,4,4.54,14.59,14.59,0,0,1,1.37,6.33V93.91a2.75,2.75,0,0,1-.86,2,2.92,2.92,0,0,1-2.08.83,2.84,2.84,0,0,1-2.88-2.88V76.39q0-7.8-7-7.8a10.15,10.15,0,0,0-5.72,1.67,20.48,20.48,0,0,0-4.77,4.47V93.91a2.71,2.71,0,0,1-.86,2,2.92,2.92,0,0,1-2.08.83A2.78,2.78,0,0,1,211.75,96Z" transform="translate(-11.04 -49.47)" style="fill:#fff"/></svg>